PathFileType	3	(X/Y/Z)	results
DataRate	CameraRate	NumFrames	NumMarkers	Units	OrigDataRate	OrigDataStartFrame	OrigNumFrames
30.0	30.0	4	85	mm	30.0	213	243
Frame#	Time	head			nose			neck			shoulder_r			elbow_r			wrist_r			shoulder_l			elbow_l			wrist_l			hip_r			knee_r			ankle_r			hip_l			knee_l			ankle_l			heel_r			heel_l			mtoe_r			ltoe_r			mtoe_l			ltoe_l			asis_l			asis_r			psi_r			psi_l			mhnd_r			lhnd_r			mhnd_l			lhnd_l			l_lat_knee			r_med_wrist			l_lat_ankle			r_med_ankle			r_lat_knee			xiphoid			l_med_ankle			r_med_knee			l_med_elbow			navel			r_lat_elbow			r_lat_wrist			l_med_wrist			l_lat_elbow			l_med_knee			r_med_elbow			r_lat_ankle			l_lat_wrist			chin			T10			r_eye			l_eye			l_ear			r_ear			spinal_cord_8			spinal_cord_12			spinal_cord_27			spinal_cord_33			up_arm_r_0			up_arm_r_5			up_arm_l_0			up_arm_l_5			front_torso_11			front_torso_7			front_torso_4			front_torso_1			front_torso_10			thigh_r_2			thigh_r_3			thigh_l_1			thigh_l_5			shank_l_0			shank_l_4			shank_r_1			shank_r_2			foot_r_1			foot_r_3			foot_r_5			foot_r_6			foot_r_7			foot_l_1			foot_l_7			foot_l_0			foot_l_4			foot_l_5			foot_l_6			
		X1	Y1	Z1	X2	Y2	Z2	X3	Y3	Z3	X4	Y4	Z4	X5	Y5	Z5	X6	Y6	Z6	X7	Y7	Z7	X8	Y8	Z8	X9	Y9	Z9	X10	Y10	Z10	X11	Y11	Z11	X12	Y12	Z12	X13	Y13	Z13	X14	Y14	Z14	X15	Y15	Z15	X16	Y16	Z16	X17	Y17	Z17	X18	Y18	Z18	X19	Y19	Z19	X20	Y20	Z20	X21	Y21	Z21	X22	Y22	Z22	X23	Y23	Z23	X24	Y24	Z24	X25	Y25	Z25	X26	Y26	Z26	X27	Y27	Z27	X28	Y28	Z28	X29	Y29	Z29	X30	Y30	Z30	X31	Y31	Z31	X32	Y32	Z32	X33	Y33	Z33	X34	Y34	Z34	X35	Y35	Z35	X36	Y36	Z36	X37	Y37	Z37	X38	Y38	Z38	X39	Y39	Z39	X40	Y40	Z40	X41	Y41	Z41	X42	Y42	Z42	X43	Y43	Z43	X44	Y44	Z44	X45	Y45	Z45	X46	Y46	Z46	X47	Y47	Z47	X48	Y48	Z48	X49	Y49	Z49	X50	Y50	Z50	X51	Y51	Z51	X52	Y52	Z52	X53	Y53	Z53	X54	Y54	Z54	X55	Y55	Z55	X56	Y56	Z56	X57	Y57	Z57	X58	Y58	Z58	X59	Y59	Z59	X60	Y60	Z60	X61	Y61	Z61	X62	Y62	Z62	X63	Y63	Z63	X64	Y64	Z64	X65	Y65	Z65	X66	Y66	Z66	X67	Y67	Z67	X68	Y68	Z68	X69	Y69	Z69	X70	Y70	Z70	X71	Y71	Z71	X72	Y72	Z72	X73	Y73	Z73	X74	Y74	Z74	X75	Y75	Z75	X76	Y76	Z76	X77	Y77	Z77	X78	Y78	Z78	X79	Y79	Z79	X80	Y80	Z80	X81	Y81	Z81	X82	Y82	Z82	X83	Y83	Z83	X84	Y84	Z84	X85	Y85	Z85	
213	7.1	56.66516206718053	1692.0954823586117	-314.31030561556594	20.502769329057035	1529.0714573470339	-445.8756208962435	81.8391859914085	1364.0677512099328	-301.00121712616925	293.62432523365874	1327.026330245355	-351.8627424301357	307.36411138836337	1070.2653579233759	-405.36184236010604	281.66776025091724	871.0182129194499	-508.96259786741894	-65.11816560174795	1303.220310173697	-250.63744663326682	-117.9549376673576	1051.3773063998783	-173.8320846736565	-118.2690179441765	876.2064193495476	-337.0908468795292	225.14058787234632	864.2389386897212	-335.4935577402559	330.2199821649708	494.90804389905566	-297.169257286378	471.32352769582286	140.40297202309793	-207.3164253312243	22.854631478486738	859.6680832924468	-295.2756099114106	59.663012317993655	480.88591619594735	-228.49354574052148	55.842786333115455	101.01855495316525	-164.8714177322253	485.1436821579095	92.63044141036823	-179.8427974924838	54.35993957065029	37.292458714316155	-136.4454161149507	490.5550894638885	12.164626803934473	-391.3714233624563	554.5396728666236	41.53388520890645	-335.8182415726352	39.97103495685066	46.74575257380461	-364.89896219480596	-32.28278790284726	22.940151681295063	-301.3947371947725	-30.61804579175452	930.0339209790847	-321.1259237767771	266.252399771383	933.1420252688548	-376.99441286921797	194.95461628093298	933.2962951415709	-214.51528930323417	92.84977665976626	931.4127453874006	-200.47193938080048	300.0861267623754	802.2185547300467	-526.5426599416463	257.764541857936	804.3303095210366	-559.3064539470037	-124.61502749743455	804.8929314490449	-363.33453958777824	-114.12464876601838	827.474814223427	-410.6183407055285	12.019935432739445	472.42125801674825	-214.55108517188674	308.45555317668	872.5808332553947	-499.5436664231814	5.38871273369456	89.31524907955452	-147.61182368401882	442.34158807137527	116.19288178706371	-215.66331796670718	373.451947252532	497.6504065400044	-298.84776390060136	70.89182699209299	1190.1620216082752	-385.952170820864	82.10097693472903	86.3125467272992	-182.37313300769424	291.9753436537494	478.37037046099056	-301.9942243714366	-86.8290243867159	1059.8365089527003	-155.8544989418519	88.28867418116013	971.8912859483954	-392.8265324861513	318.232142889881	1084.9959118587049	-441.10186839773166	252.31294428353473	881.849428428487	-506.8474688890844	-137.0633012514425	866.2838044535262	-311.43657895357126	-153.12117190268555	1066.2754339228438	-188.37911911058623	93.31774633465459	476.3883645855039	-264.5735263635782	297.48044034582574	1068.5020820242116	-369.7336238521324	522.3701626873379	139.7533661621398	-209.76898484601236	-111.01138085556228	902.4804629849613	-353.97932178941005	35.768533807622184	1452.8751172488016	-437.68393855694563	134.8911447860394	1213.9591458925945	-202.84075921155835	47.70649118730907	1564.5882694311783	-454.73469299503154	-14.845538038159884	1555.0236958879868	-427.19333019832277	-19.956011413364728	1535.209303405092	-314.4195828368861	136.53794813730647	1555.6656525751246	-380.7806774263271	91.26913380227803	1425.8670826104253	-256.7458762981398	121.11772740880815	1312.9246556419585	-204.816209382683	158.58287051671618	1063.9196036657331	-217.81097652382584	131.5365071607733	1203.5589576585983	-214.74598725431176	262.2569529451813	1203.6264331057466	-404.4889729591952	341.6114709354559	1174.5538162883756	-377.50723222577506	-104.74525541590579	1256.6008424335691	-241.39590594426264	-76.304209908553	1125.9341069370646	-162.36725769931599	145.33838359870245	1006.9028119835282	-373.61791917628807	71.6418731231483	1102.125533326395	-412.64037926798005	0.8203661516605343	1228.1072459060508	-369.7838180462445	25.429333125878166	1028.047231306966	-336.90940933832576	134.25429383438987	1283.029394946965	-429.4590390757147	265.2753562274814	658.7537525675779	-316.966664389016	366.25764145621065	650.8870553490931	-311.60324187347845	91.95202409664952	589.7877436887416	-265.9200461523717	-66.85316102751143	749.4417131206314	-260.13474607753614	-10.645386653401388	194.36836587602102	-175.2559398616049	104.02917366854467	331.16452054482306	-218.63115731085287	445.7524158233105	364.1671012328391	-261.33577840965575	366.16774253213623	294.3397835624835	-252.43346406397131	514.4238439062187	16.269298907404036	-372.8641397949899	537.2528789638213	28.519885574298	-358.57122952053123	473.89781112485707	46.11750113442319	-315.7386498509958	508.2391442373456	64.57011150541601	-306.7939514645254	541.2777737654379	62.634697228890246	-292.37971686477067	-5.344410744607453	27.995789246727373	-334.56515366674364	-15.195360631100247	52.13294821042644	-225.42093603187215	-19.392595720473764	26.123476291091094	-325.1249388627758	11.985778258340456	30.237817034234528	-345.51463839245935	9.844534827615762	42.946531321800556	-285.26216643443763	42.475455247576186	56.89214729553269	-257.8749536324646	
214	7.133333333333333	40.6266594663968	1691.4987652494806	-319.97783603070377	2.900734394713722	1527.5774189471445	-449.9798758929352	66.43887967441742	1362.6456469223115	-306.3228230789616	272.447020091968	1328.5183704166855	-359.6500005040691	306.0114981247287	1070.769991481105	-397.28417772492514	275.39020136371425	875.5517823678933	-507.03403335574006	-79.85189627791377	1300.9922705188185	-251.85181614036523	-134.36446920453028	1048.5346828138813	-178.30433174420227	-135.54497564942082	880.0083956920423	-348.40976583398896	213.202086479808	865.3952901648518	-336.0579808899395	322.59036435096505	495.959798062815	-312.1303679060799	465.59788080901063	144.83012272418122	-212.55934154497572	10.94149623359536	858.2644736116883	-296.0856243251363	51.376680760447094	479.5950120652699	-230.51207529017807	53.6452597225218	100.11586665368927	-164.5422853585497	479.47072392437826	97.83456858432753	-183.84443574758467	52.85342052305681	36.15559615718816	-136.06630785104176	488.11119899499727	12.406831244460987	-393.31002742147217	551.1919147977759	43.487025551015115	-337.65411061895765	41.04103406593554	47.322051254212006	-364.59028003775387	-31.66305221508236	22.13122079013797	-302.1431340411471	-43.28861523340014	928.222809504855	-321.4596918757615	253.58177942318372	935.0643443094908	-376.9950140821299	182.13181943973134	933.1953998145074	-214.59343284151305	80.04102115848491	930.0669431511695	-200.67066817396264	289.0880108807368	805.2852317528902	-523.0549463624133	252.313062513834	811.8330863040909	-561.444671916712	-142.02418758499377	809.7950592277703	-377.43947468542314	-131.79506620837603	834.2469132980053	-423.84226805067	3.6752071841447895	470.54946842281447	-217.22993959806945	300.57706333593075	874.3288306864121	-493.88601925183895	3.1785284505986207	87.58881580700867	-147.90929014818155	436.94881084823317	120.17696896558589	-220.75718945999898	365.71863791213855	499.4180552647412	-313.1300393102931	57.502916913993786	1187.5941855471685	-389.12890033754326	80.41093338761856	85.79067023753761	-181.58507709246797	284.4648441994184	479.33769078074187	-316.9584734779687	-102.97935971304555	1056.422782430584	-160.51874879697863	76.42228323451265	969.3764578972563	-393.01504280389213	322.7890515608497	1084.562739590966	-431.05882190374376	247.2797828856959	889.3280606356944	-508.9082666805642	-154.197639048408	869.0646969680109	-323.0693151555367	-169.52796779059588	1063.9870128888579	-192.26815311714483	85.60625538352457	475.724574353132	-266.0954513042672	289.71262575248215	1069.961843653996	-364.0597935213264	516.6769967608096	144.59545654583755	-214.31000578250348	-128.38322838946593	906.9371278796045	-364.2770910276821	18.154224762192868	1451.4218891472499	-441.3952511757422	119.50370907980982	1214.1724007545008	-205.71269300828214	30.056216061349353	1562.9929553427592	-459.37610807807215	-32.21982096428803	1553.711091080803	-431.1217933599438	-36.189388365409734	1534.7184003414322	-318.1608912094537	119.63598661352265	1554.4859143017038	-386.2807442394459	75.01266416245072	1425.070202985747	-262.77650878137274	105.0914359556785	1313.0085706187517	-209.1008281203805	144.34384637644283	1064.1175979074605	-218.51086583648973	116.33795922876051	1203.5978072193668	-217.51557244919206	256.3439668380024	1201.7679391660129	-411.1862659073365	330.32596267678315	1177.5945224727166	-368.61067285020016	-119.83609973827791	1254.6200300511587	-242.90945171766174	-91.87781640392565	1122.5074549807903	-166.14475944601506	133.04196893137592	1005.0182734633188	-373.69357029360305	59.10720218045485	1099.2297341336616	-414.67095004963164	-12.978441368926411	1225.266752155374	-374.14820734588625	12.632749191431882	1025.8166883510519	-338.4540003739934	120.67784374654138	1280.32418028832	-433.1978862065426	255.6951544320718	659.8358411960206	-325.2016813613109	356.76506448293446	652.9306925631986	-320.1752153171523	82.88659149178237	589.104258494608	-266.9604056775732	-77.90488127901394	746.8058165189925	-262.6863729783778	-14.394563232430304	192.15809877966112	-176.43819405864392	98.34292942085354	330.7804795195368	-219.0872915195717	438.7797536348658	367.10613071633975	-271.85961233983664	359.7044336118421	296.7639050237609	-262.48460490091907	511.71245467032287	17.09921718435238	-374.6004693964707	534.2802840168681	29.828523145866683	-360.31107305577746	470.2699487367785	48.039944479924685	-318.72752239265157	504.38142013104294	66.91469364195943	-309.7840900504214	537.240849674527	65.52919621141598	-294.90439531027846	-4.399062592411053	27.78209972347502	-334.94945357218023	-15.823766066577573	50.89789800856353	-225.73754982628017	-18.53378877586868	25.664166755363567	-325.6921003799164	13.030508799433342	30.321389782971885	-345.6739769800931	10.027437524826253	42.50573144763893	-285.35001739152585	42.163444853867894	56.613715293709426	-257.46528281957853	
215	7.166666666666667	27.294110697537953	1690.5594600574505	-326.6626240240705	-11.693538883799794	1525.5824396371604	-454.94562943707115	52.58765245459295	1361.4862649014499	-311.66387515201535	257.00635004195317	1326.5089409090317	-367.0833397186901	293.4624112469478	1068.4855434779101	-399.8249692465728	253.94234537639915	878.9080216378671	-516.4070064661034	-95.05404459805928	1299.3822004447027	-254.8850129445413	-153.4598614996285	1046.4492884231709	-186.11445800823182	-156.89103279477806	884.6289628614126	-362.5819367459404	201.56233188187593	867.9231934068976	-336.20813884618144	313.4198869898737	498.34338871554985	-331.7620621258446	455.72409377165616	150.35061835807844	-220.8200391198793	-0.8747880178231054	857.2155565766514	-297.96492767045277	42.83856510561441	478.3376438284719	-235.2464967637199	52.85428897758985	99.84182307266425	-164.52040269553504	469.1868737171197	103.91820103849811	-190.76574533713125	53.21668077834641	35.769092524984366	-135.64921449536135	483.08094258363207	15.4426094200555	-398.6777814241414	544.6874790970237	47.82530943134732	-342.1204507033999	40.84300980408151	47.84416646110366	-364.0972674818057	-31.500319347880197	21.70586286815885	-301.62055216287354	-55.89729968444697	926.8624202867334	-322.4752242817358	241.2597851170718	938.8969308427679	-375.5397825343373	168.61101429281373	933.0243171162882	-213.76669506191826	66.47197162944362	928.2058858900031	-200.7068177611032	263.3362915241023	808.2852948404209	-533.8962034153669	228.8099024730139	818.4550335737572	-573.5641643906299	-164.18475090009315	815.6575465932546	-394.2736109667015	-153.83835628741764	841.7742395727973	-439.7336790489047	-4.7875767231642525	468.8404871452897	-222.17944919557902	278.38782166155596	875.5397519990129	-502.2713299513091	2.5794826856518487	86.44530082642315	-147.98403242059157	427.3957726842125	125.36356533054932	-229.12096169911462	356.4437056926175	502.2464994267268	-331.89062135913565	45.193701808811355	1185.214680913096	-391.99674615179595	80.00869406914987	85.88214912710818	-181.2486744727005	275.29809509253363	481.85757283069205	-336.3334235488364	-121.82353343010627	1053.4278673121075	-168.39395132539315	64.60274684777937	967.0057075175536	-392.38928439047714	312.34904913945604	1081.9811974542247	-432.5910343444548	226.9798221711707	894.7067391151296	-519.03704238948	-175.58193850287654	872.9083883443859	-337.6199053577069	-188.44184170633474	1062.7896744439834	-199.51174468883087	77.32458841084822	475.1853389196311	-270.60105395744074	275.0616515086197	1067.9695103190575	-367.71092558874494	506.8308516737192	150.34958737208405	-221.36343177913392	-149.49644492616713	912.0745598707066	-377.423719822921	3.3340449919024087	1449.4549385997734	-445.73667848216604	104.49567083485579	1214.628778684586	-208.12153796491242	15.538038874030608	1560.8117694446041	-464.8099629751613	-46.621890559022766	1552.0152817675723	-436.14763457336136	-50.06780652782059	1534.0801158690217	-322.9968472634469	105.46825134463427	1552.6570846696945	-392.1058004026558	60.409281954806396	1424.5643085997056	-268.92514582800493	89.93630603534531	1313.3722382217918	-213.17481856631161	129.8169849204756	1064.4569640170644	-218.3453649666402	101.52120497317132	1203.8744989774086	-219.81127639084966	244.51770753342734	1199.1985063171503	-418.240488294115	315.6579912042127	1175.6619227404474	-370.74880291802964	-135.77879364857844	1253.533953191622	-246.60732411182252	-109.61090296820319	1119.4123648768334	-172.75031954525113	120.86726511981954	1003.053256177669	-372.78506687397015	47.34180074679629	1096.4873201940104	-416.20598899619125	-25.57100673439379	1222.9480626331251	-378.58730054315373	-0.07784890264435351	1024.102505127698	-339.58883122779497	108.81090669956637	1277.4247583260446	-436.51810828167083	245.37531308226514	662.3550263503768	-335.60939417845816	346.50879684373496	655.8595396734288	-331.37852295351786	73.51748351040342	588.5370190085061	-270.5928637737646	-88.80384051598982	744.6506450645314	-265.87375362543804	-17.069892862064435	190.25257270769825	-177.90725410875595	92.90773722689819	330.71525123121575	-221.72516172637572	429.24449604294966	371.0673015873398	-285.8226116751429	350.30940211176966	300.53508349422066	-276.69666659808223	506.2275513155834	20.591753975635356	-379.52559796356513	528.3808589492519	33.702942805299855	-364.9359890647983	463.33542967063136	52.048683442061844	-325.0524522873576	497.10325622112083	71.31189821706573	-315.64521755766	529.6342421935699	70.39680618875273	-300.0258517941881	-4.355492731783206	27.75407260906764	-334.4548286273947	-15.77336950545552	50.27670786823531	-225.11834390890283	-18.45148438647913	25.46463733479916	-325.1792576012674	13.028368706255067	30.501768938452123	-345.20214836866523	10.034300790398424	42.389008996190576	-284.81849329173457	42.09487977068407	56.66841627910952	-256.9341894542968	
216	7.2	14.795651169722985	1689.935337388226	-334.2422841116813	-23.578129849099025	1523.3289188382114	-460.5899702506949	40.6157000135858	1360.8451552275299	-316.68801603564225	248.82403112536085	1325.267762165588	-369.985156292937	264.15024435210523	1067.143356706957	-415.9637471736785	225.13465036573055	877.8566008282427	-533.1864039874649	-110.27454038531073	1299.0631419270287	-260.50071827636816	-173.80646029045295	1046.0577975161427	-196.72237155449787	-179.67322567718438	890.095070108541	-378.3251536832221	190.51246812598535	870.9977920458772	-337.29511010461744	301.7254469330964	501.3812240354215	-355.06883244198133	440.27891433719344	156.1881090666945	-231.3666174011608	-12.027773585668394	855.7498709699402	-301.19891098266237	36.10545596898533	477.0776134488446	-240.13025123202485	53.65683317441346	99.61294248591618	-165.4713417203345	452.73091075147556	110.08287045245604	-199.91816735863682	55.49798109060706	35.48567724594821	-136.25775666435968	475.5858254616399	20.784512405409878	-406.6833635001531	534.5794819802557	54.37560682945151	-348.08197166163774	37.67842007077621	48.15866049818567	-364.3132034263005	-33.08931492152409	21.63758477874623	-300.2143081839311	-68.15779167305213	924.7362248501105	-325.0572659669747	229.19330702124137	943.3840277320744	-375.0331940481622	155.1632699879293	933.3481259356254	-214.09315050214644	53.01915685474291	926.3454679122639	-202.10546333459024	234.74066979555386	807.3276106711844	-550.9367198326057	200.1444433679867	817.5271450378444	-590.5361247577084	-188.05020749158274	822.3100524779753	-412.23141212108754	-177.2339882490927	849.709188680597	-456.8188998318346	-11.20630554230643	467.17173974175597	-226.36372981498624	249.60411696765914	874.5170357948988	-519.0854674474946	3.8495624947164213	85.53374956612791	-148.107971885457	412.31736725117736	130.96374948436474	-240.17771713491427	344.6536269385804	505.38548270933416	-354.45517573769104	34.126499962594366	1183.777651826409	-395.33088928538626	80.82284412390932	85.9405620738281	-182.41664054191068	263.4184951198409	485.3868875120384	-359.0340934288574	-141.99943593368914	1052.0175798512648	-178.9356245159222	53.00087456069216	965.5320894928157	-393.1736477239739	283.261851428791	1080.7498444286487	-448.55305149205276	198.11870234109156	893.5772062925449	-535.7349990205859	-198.57793823255565	877.8797514233945	-353.7645619386313	-208.4651645617646	1063.3891551838728	-209.70823712136254	70.16157573703572	474.41533738622326	-275.90275285767046	246.52560578920898	1066.45656613726	-383.4204455054976	491.3701336554551	156.29057799183394	-229.99811873553918	-171.81919997969564	917.8818134735545	-392.26898469759476	-8.012296730735406	1447.405925173178	-450.6183434376293	90.42852599633426	1214.9367922260203	-210.8012312412121	3.382411496187253	1558.6281133496811	-470.93722395511406	-58.61021397614715	1549.7328141742978	-441.9449468521634	-61.51387572640483	1532.9988704129835	-328.5950943769207	93.63606176612313	1551.8515541121662	-398.49280310707417	47.87967093258165	1424.3394038888498	-274.47034695632016	76.19909711744373	1313.6565136231693	-217.10373158848554	115.54605014476796	1064.6103875839142	-219.06873111426012	87.62274342071828	1204.0702342329453	-222.42867572273389	225.18942427753768	1201.9968563539744	-426.78881759729904	295.3610026875716	1170.7114166285141	-382.4318367294236	-151.92954761676793	1253.9125713141539	-253.05938508279758	-128.42405858229745	1117.80881539569	-181.98565091590666	109.01967442749205	1001.6491516791282	-373.00190992734076	36.45877309683684	1094.8023391083336	-418.59460646620175	-36.75851131890543	1221.8088276015874	-383.4898526945947	-12.409520496192886	1023.3150040259444	-342.04511728638477	98.70412477560293	1275.3806111112444	-439.7226345122285	233.8910706114601	665.6291303415602	-348.2594504863031	335.0528879810609	658.7635785081518	-345.5716892010991	65.28075051773921	587.7253155806987	-275.5507862129419	-98.43175895228622	742.2757697827632	-268.18072355403723	-18.00391895549687	188.65059408226358	-178.87790163167966	88.91356545912602	330.49914581352834	-225.70195639163768	415.93267376897245	375.38876233791495	-302.08218828952374	336.81323949377975	304.8923442303073	-294.38830301744565	497.9323724485681	26.378031482990576	-386.7226596337654	519.3359276861414	39.89472035354579	-371.4022175831322	452.60032143512564	57.457798812157904	-334.0382281174067	485.70851181404487	77.27480768869722	-323.504116494118	517.6523431076715	76.92858693365723	-306.69522592733244	-6.747665675987731	27.8555078069603	-333.6652739738294	-15.634294928404644	50.041505957564766	-224.02534873569024	-20.61328614802762	25.499508094770235	-324.06482884109914	10.368703172479773	30.68337584169424	-344.8136565945449	8.773193776610018	42.39430104560942	-284.3424626261702	41.445189675856746	56.68912745144901	-257.18523118797543	
